<svg width="22" height="22" viewBox="0 0 22 22" fill="none" xmlns="http://www.w3.org/2000/svg">
<path d="M15.308 3.384C14.718 3.384 14.422 3.384 14.153 3.284L14.042 3.238C13.781 3.118 13.572 2.91 13.154 2.492C12.192 1.53 11.711 1.049 11.12 1.004C11.04 0.999196 10.9599 0.999196 10.88 1.004C10.289 1.049 9.80797 1.53 8.84597 2.492C8.42797 2.91 8.21897 3.119 7.95797 3.238L7.84797 3.284C7.57797 3.384 7.28297 3.384 6.69197 3.384H6.58197C5.07497 3.384 4.32097 3.384 3.85197 3.852C3.38297 4.32 3.38397 5.075 3.38397 6.582V6.692C3.38397 7.282 3.38397 7.578 3.28397 7.847C3.2693 7.885 3.25397 7.922 3.23797 7.958C3.11797 8.219 2.90997 8.428 2.49197 8.846C1.52997 9.808 1.04897 10.289 1.00397 10.88C0.999165 10.9599 0.999165 11.0401 1.00397 11.12C1.04897 11.711 1.52997 12.192 2.49197 13.154C2.90997 13.572 3.11897 13.781 3.23797 14.042C3.25464 14.078 3.26997 14.1147 3.28397 14.152C3.38397 14.422 3.38397 14.717 3.38397 15.308V15.418C3.38397 16.925 3.38397 17.679 3.85197 18.148C4.31997 18.617 5.07497 18.616 6.58197 18.616H6.69197C7.28197 18.616 7.57797 18.616 7.84697 18.716C7.88497 18.73 7.92197 18.7453 7.95797 18.762C8.21897 18.882 8.42797 19.09 8.84597 19.508C9.80797 20.47 10.289 20.951 10.88 20.996C10.96 21.002 11.04 21.002 11.12 20.996C11.711 20.951 12.192 20.47 13.154 19.508C13.572 19.09 13.781 18.882 14.042 18.762C14.078 18.7453 14.1146 18.73 14.152 18.716C14.422 18.616 14.717 18.616 15.308 18.616H15.418C16.925 18.616 17.679 18.616 18.148 18.148C18.617 17.68 18.616 16.925 18.616 15.418V15.308C18.616 14.718 18.616 14.422 18.716 14.153C18.73 14.115 18.7453 14.078 18.762 14.042C18.882 13.781 19.09 13.572 19.508 13.154C20.47 12.192 20.951 11.711 20.996 11.12C21.002 11.04 21.002 10.96 20.996 10.88C20.951 10.289 20.47 9.808 19.508 8.846C19.09 8.428 18.882 8.219 18.762 7.958L18.716 7.848C18.616 7.578 18.616 7.283 18.616 6.692V6.582C18.616 5.075 18.616 4.321 18.148 3.852C17.68 3.383 16.925 3.384 15.418 3.384H15.308Z" stroke="white" stroke-width="1.5" stroke-linecap="round" stroke-linejoin="round"/>
<path d="M14.5 11C14.5 11.4596 14.4095 11.9148 14.2336 12.3394C14.0577 12.764 13.7999 13.1499 13.4749 13.4749C13.1499 13.7999 12.764 14.0577 12.3394 14.2336C11.9148 14.4095 11.4596 14.5 11 14.5C10.5404 14.5 10.0852 14.4095 9.66061 14.2336C9.23597 14.0577 8.85013 13.7999 8.52513 13.4749C8.20012 13.1499 7.94231 12.764 7.76642 12.3394C7.59053 11.9148 7.5 11.4596 7.5 11C7.5 10.0717 7.86875 9.1815 8.52513 8.52513C9.1815 7.86875 10.0717 7.5 11 7.5C11.9283 7.5 12.8185 7.86875 13.4749 8.52513C14.1313 9.1815 14.5 10.0717 14.5 11Z" stroke="white" stroke-width="1.5" stroke-linecap="round" stroke-linejoin="round"/>
</svg>
